<?xml version="1.0" encoding="iso-8859-1"?>
<!-- Generator: Adobe Illustrator 16.0.0, SVG Export Plug-In . SVG Version: 6.00 Build 0)  -->
<!DOCTYPE svg PUBLIC "-//W3C//DTD SVG 1.1//EN" "http://www.w3.org/Graphics/SVG/1.1/DTD/svg11.dtd">
<svg version="1.1" id="Capa_1" xmlns="http://www.w3.org/2000/svg" xmlns:xlink="http://www.w3.org/1999/xlink" x="0px" y="0px"
	 width="64.436px" height="64.436px" viewBox="0 0 64.436 64.436" style="enable-background:new 0 0 64.436 64.436;"
	 xml:space="preserve">
<g>
	<g>
		<path d="M63.27,31.05H42.693l10.2-10.203c0.457-0.455,0.457-1.195,0-1.651c-0.451-0.455-1.195-0.455-1.651,0L39.047,31.392
			c0,0,0,0-0.002,0l-0.823,0.826l0.823,0.825c0.002,0,0.002,0,0.002,0L51.242,45.24c0.233,0.229,0.532,0.34,0.828,0.34
			c0.297,0,0.598-0.114,0.828-0.34c0.452-0.456,0.452-1.197,0-1.651L42.693,33.386h20.575c0.643,0,1.168-0.524,1.168-1.168
			S63.911,31.05,63.27,31.05z"/>
		<path d="M25.391,33.043l0.827-0.825l-0.827-0.826h-0.002L13.19,19.195c-0.453-0.455-1.196-0.455-1.651,0
			c-0.453,0.456-0.453,1.196,0,1.651L21.74,31.05H1.168C0.523,31.05,0,31.574,0,32.218s0.523,1.168,1.168,1.168h20.574
			L11.539,43.589c-0.453,0.454-0.453,1.195,0,1.651c0.231,0.229,0.53,0.34,0.827,0.34s0.598-0.114,0.827-0.34L25.391,33.043
			C25.388,33.043,25.388,33.043,25.391,33.043z"/>
		<path d="M33.043,39.05L33.043,39.05l-0.825-0.826l-0.827,0.823c0,0,0,0,0,0.003l-12.2,12.192c-0.455,0.456-0.455,1.197,0,1.651
			c0.456,0.456,1.196,0.456,1.651,0l10.203-10.201v20.575c0,0.644,0.523,1.168,1.168,1.168c0.644,0,1.168-0.524,1.168-1.168V42.692
			l10.203,10.201c0.229,0.23,0.531,0.342,0.828,0.342c0.301,0,0.598-0.114,0.825-0.342c0.452-0.454,0.452-1.195,0-1.651
			L33.043,39.05z"/>
		<path d="M31.393,25.386L31.393,25.386l0.827,0.827l0.828-0.825l0,0l12.199-12.196c0.456-0.455,0.456-1.196,0-1.651
			s-1.195-0.455-1.651,0L33.39,21.742V1.168C33.39,0.523,32.866,0,32.222,0c-0.642,0-1.167,0.523-1.167,1.168v20.574L20.849,11.541
			c-0.453-0.455-1.195-0.455-1.65,0c-0.454,0.455-0.454,1.196,0,1.651L31.393,25.386z"/>
	</g>
</g>
<g>
</g>
<g>
</g>
<g>
</g>
<g>
</g>
<g>
</g>
<g>
</g>
<g>
</g>
<g>
</g>
<g>
</g>
<g>
</g>
<g>
</g>
<g>
</g>
<g>
</g>
<g>
</g>
<g>
</g>
</svg>
