<?xml version='1.0' encoding='utf-8'?>
<!DOCTYPE svg PUBLIC '-//W3C//DTD SVG 1.1//EN' 'http://www.w3.org/Graphics/SVG/1.1/DTD/svg11.dtd'>
<svg version="1.1" xmlns="http://www.w3.org/2000/svg" viewBox="0 0 512 512" xmlns:xlink="http://www.w3.org/1999/xlink" enable-background="new 0 0 512 512">
  <g>
    <path d="m420.3,173.8c-33.5,0-93.4,23.2-109.5,61.1-12.3,1.9-24,6.9-34.4,14.1v-48.3c37.3-16.6 60.3-75.8 60.3-109.1 0-44.5-36.2-80.7-80.7-80.7-44.5,0-80.7,36.2-80.7,80.7 0,33.3 22.9,92.5 60.3,109.1v45.3c-10.3-6.2-22.1-10.3-34.6-11.6-16.3-37.6-75.9-60.7-109.3-60.7-44.5,0.1-80.7,36.3-80.7,80.8 0,44.5 36.2,80.7 80.7,80.7 33.1,0 91.7-22.6 108.7-59.5 20,3.8 35.2,21.4 35.2,42.5v142h-58.9c-11.3,0-20.4,9.1-20.4,20.4s9.1,20.4 20.4,20.4h158.6c11.3,0 20.4-9.1 20.4-20.4s-9.1-20.4-20.4-20.4h-58.9v-135.4c0-21.6 16.4-42.8 35.5-48.5 17.5,36.5 75.6,58.8 108.4,58.8 44.5,0 80.7-36.2 80.7-80.7-5.68434e-14-44.4-36.2-80.6-80.7-80.6zm-328.6,120.5c-22,0-39.8-17.9-39.8-39.8s17.9-39.8 39.8-39.8c28.5,0 72.7,24.2 72.7,39.8s-44.2,39.8-72.7,39.8zm164.3-242.5c22-1.42109e-14 39.8,17.9 39.8,39.8 0,28.5-24.2,72.7-39.8,72.7-15.6,0-39.8-44.2-39.8-72.7 0-21.9 17.8-39.8 39.8-39.8zm164.3,242.5c-28.5,0-72.7-24.2-72.7-39.8s44.2-39.8 72.7-39.8c22,0 39.8,17.9 39.8,39.8s-17.8,39.8-39.8,39.8z"/>
  </g>
</svg>
