<?xml version="1.0" encoding="iso-8859-1"?>
<!-- Generator: Adobe Illustrator 19.0.0, SVG Export Plug-In . SVG Version: 6.00 Build 0)  -->
<svg version="1.1" id="Layer_1" xmlns="http://www.w3.org/2000/svg" xmlns:xlink="http://www.w3.org/1999/xlink" x="0px" y="0px"
	 viewBox="0 0 479.1 479.1" style="enable-background:new 0 0 479.1 479.1;" xml:space="preserve">
<g>
	<g>
		<path d="M425.028,71.3c-25-44-73.5-71.3-126.7-71.3h-243.8v98.5h245.2c17.7,0,32.4,8.2,40.1,22.6l0.2,0.4
			c9.1,14.8,9.1,31.7,0,46.4l-0.1,0.2c-8.4,14.3-23.4,22.8-40.3,22.8h-120.1c-25.6,0-51,6.8-73.3,19.5
			c-22.5,12.9-40.9,31.3-53.4,53.2c-12.4,21.9-19,46.8-19,72c0,25.1,6.6,50,19,72l0.1,0.2c26.5,44.2,73.4,71.3,123.1,71.3
			c1.2,0,2.4,0,3.6,0h235.7v-97.2h-235.8c-16.6,0-31.7-8.3-41.6-22.9c-8-14.9-7.9-32,0.2-46.9c8.1-14.8,24.1-23.7,41-22.6h0.3
			l120.3-1.3c1.2,0,2.4,0,3.5,0c49.8,0,96.7-27.1,123.1-71.3l0.1-0.2C452.028,171.4,451.528,115.7,425.028,71.3z M87.928,83.5h-18.4
			V56.8h18.4V83.5z M87.928,41.8h-18.4V15h18.4V41.8z M125.328,83.5h-22.4V73.3h22.4V83.5z M125.328,58.3h-22.4V40.2h22.4V58.3z
			 M125.328,25.2h-22.4V15h22.4V25.2z M413.428,209.2c-24.3,40.6-67.8,65.1-113.5,63.9h-0.1l-120,1.3c-22.6-1.4-44.1,10.5-54.9,30.4
			c-10.6,19.5-10.6,42,0,61.5l0.4,0.6c12.5,18.7,32.8,29.8,54.3,29.8h220.8v67.2h-220.9h-0.2c-45.7,1.2-89.2-23.2-113.5-63.9
			c-22.5-39.8-22.5-89.3,0-129.1c22.4-39.6,67-65.1,113.6-65.1h120.2c21.8,0,42.2-11.5,53.2-30.1c12.2-19.7,12.2-42.3,0.1-62
			c-10.5-19.2-29.9-30.2-53.2-30.2h-159.4V56.8h162.1c32.7,0,61.7,16,77.7,42.7c15.9,26.7,15.9,61.1,0,87.8l-0.1,0.1
			c-15.7,27.5-44.7,43.9-77.6,43.9h-120.2c-37,0-71.7,19.7-90.6,51.4l-0.1,0.1c-18.7,32.9-18.7,71.4,0,102.9
			c18.4,32.2,52.2,51.4,90.6,51.4h196.3v-15h-196.3c-32.9,0-61.9-16.4-77.6-43.9l-0.1-0.1c-16-26.8-16-59.7,0-87.8
			c16.2-27.1,45.9-44,77.6-44h120.2c38.4,0,72.2-19.2,90.6-51.4c18.6-31.3,18.6-71.8,0-103.1c-9.2-15.4-22.4-28.1-38.4-36.9
			c-15.7-8.6-33.8-13.2-52.2-13.2h-162.1V14.9h158.1c47.8,0,91.3,24.4,113.6,63.8l0.1,0.2
			C435.828,118.7,436.328,168.6,413.428,209.2z"/>
	</g>
</g>
<g>
</g>
<g>
</g>
<g>
</g>
<g>
</g>
<g>
</g>
<g>
</g>
<g>
</g>
<g>
</g>
<g>
</g>
<g>
</g>
<g>
</g>
<g>
</g>
<g>
</g>
<g>
</g>
<g>
</g>
</svg>
